<svg xmlns="http://www.w3.org/2000/svg" viewBox="0 0 420 560">
  <defs>
    <linearGradient id="bg" x1="0%" y1="0%" x2="100%" y2="100%">
      <stop offset="0%" stop-color="#7c5cff" stop-opacity="0.4" />
      <stop offset="100%" stop-color="#00a8ff" stop-opacity="0.6" />
    </linearGradient>
    <radialGradient id="glow" cx="50%" cy="35%" r="65%">
      <stop offset="0%" stop-color="#ffffff" stop-opacity="0.25" />
      <stop offset="100%" stop-color="#04010a" stop-opacity="0" />
    </radialGradient>
  </defs>
  <rect width="420" height="560" rx="64" fill="#0b0615" />
  <rect
    x="16"
    y="16"
    width="388"
    height="528"
    rx="56"
    fill="url(#bg)"
    opacity="0.85"
  />
  <circle cx="210" cy="200" r="120" fill="url(#glow)" />
  <path
    d="M210 148c-30 0-54 24-54 54s24 54 54 54 54-24 54-54-24-54-54-54z"
    fill="#ffe8d6"
    opacity="0.88"
  />
  <path
    d="M210 322c-62 0-112 42-112 94v40c0 11 9 20 20 20h184c11 0 20-9 20-20v-40c0-52-50-94-112-94z"
    fill="#1e1236"
    opacity="0.9"
  />
  <path
    d="M210 184c-22 0-40 18-40 40 0 22 18 40 40 40s40-18 40-40c0-22-18-40-40-40z"
    fill="#1e1236"
    opacity="0.2"
  />
  <path
    d="M248 264c-12 8-26 12-38 12-12 0-26-4-38-12 8 24 28 40 38 40 10 0 30-16 38-40z"
    fill="#d7c2ff"
    opacity="0.4"
  />
</svg>
